<svg width="35" height="32" viewBox="0 0 35 32" fill="none" xmlns="http://www.w3.org/2000/svg">
<path d="M7.03057 7.16639C6.00634 7.16639 5.57958 8.19061 5.49423 8.70273C3.03599 9.72694 2.59228 12.5436 2.67771 13.8239C1.24379 15.6675 2.59232 17.6647 3.44582 18.4329C2.01194 21.0959 4.04327 22.7859 5.23817 23.298C4.62363 26.3707 7.54268 27.3095 9.07902 27.3949C8.87418 30.8773 12.9199 30.3822 14.9683 29.6994C17.6313 32.1575 20.0041 30.7236 20.8576 29.6994C24.9545 31.3382 26.1495 28.8459 26.2348 27.3949C30.5366 27.5997 30.7585 24.5783 30.3317 23.0419C33.4044 21.4032 32.6362 18.6036 31.8681 17.4087C33.5068 16.999 33.063 15.1895 32.6362 14.336C33.2508 12.0827 31.0145 9.98303 29.8196 9.21486C30.639 7.98579 28.6247 6.9957 27.5151 6.65429C27.3103 4.19615 24.6985 3.5816 23.4182 3.58159C22.394 1.73797 20.4309 1.9599 19.5773 2.30132C17.7337 1.07224 15.9072 1.7892 15.2244 2.30132C13.3808 1.48194 11.8956 2.81343 11.3835 3.58159C7.69632 2.96706 6.94522 5.7154 7.03057 7.16639Z" fill="white" fill-opacity="0.941176"/>
<path fill-rule="evenodd" clip-rule="evenodd" d="M19.1512 2.9405C17.6644 1.9493 16.201 2.52911 15.6853 2.91588L15.3245 3.18646L14.9124 3.00331C14.2325 2.70114 13.6404 2.79187 13.1429 3.03586C12.6196 3.29247 12.2173 3.71577 12.0227 4.00772L11.7472 4.42099L11.2572 4.33934C9.63261 4.06857 8.82231 4.5456 8.39043 5.08148C7.90949 5.67822 7.76187 6.51735 7.7974 7.1213L7.84524 7.93458H7.03056C6.81463 7.93458 6.65874 8.02886 6.51993 8.20992C6.36636 8.41024 6.27848 8.66975 6.25193 8.82904L6.18205 9.24835L5.78965 9.41184C4.79616 9.82577 4.19463 10.6022 3.84265 11.4591C3.48544 12.3289 3.40819 13.2337 3.44416 13.7728L3.46363 14.0646L3.28405 14.2955C2.75105 14.9808 2.73315 15.6658 2.93551 16.2973C3.14918 16.9642 3.60827 17.5457 3.95969 17.862L4.40829 18.2657L4.12216 18.7971C3.53024 19.8964 3.67849 20.7 4.01972 21.285C4.39271 21.9244 5.049 22.3812 5.54076 22.5919L6.11365 22.8375L5.99141 23.4487C5.86315 24.09 5.92742 24.5698 6.07495 24.934C6.22379 25.3014 6.47867 25.6032 6.81091 25.8507C7.49652 26.3614 8.44771 26.5905 9.12162 26.6279L9.89111 26.6707L9.84585 27.44C9.80365 28.1575 9.98185 28.5643 10.2002 28.8113C10.4308 29.0721 10.7985 29.2591 11.3163 29.3534C12.3752 29.5462 13.7554 29.294 14.7254 28.9707L15.1559 28.8272L15.4893 29.135C16.6648 30.22 17.6881 30.3825 18.4602 30.2485C19.2779 30.1065 19.932 29.6102 20.2675 29.2077L20.6248 28.7789L21.1429 28.9862C23.0482 29.7483 24.0659 29.4735 24.5977 29.0853C25.1735 28.6651 25.4337 27.9331 25.468 27.3498L25.5126 26.5915L26.2713 26.6276C28.2306 26.7209 29.0402 26.0866 29.3936 25.4832C29.7909 24.8047 29.7729 23.9004 29.5916 23.2475L29.4267 22.654L29.9702 22.3642C31.2903 21.6601 31.7039 20.7723 31.7752 19.9892C31.8519 19.1476 31.5392 18.3177 31.2219 17.8241L30.6428 16.9232L31.6817 16.6635C31.9465 16.5973 32.0653 16.4937 32.127 16.4121C32.1953 16.3219 32.247 16.1872 32.2602 15.9879C32.2884 15.5642 32.1289 15.0391 31.9492 14.6796L31.8179 14.4171L31.8951 14.1339C32.1178 13.3174 31.8429 12.4675 31.2771 11.6589C30.7141 10.8544 29.936 10.2029 29.4042 9.86106L28.7472 9.43868L29.1804 8.78878C29.2601 8.66928 29.2444 8.62269 29.2336 8.59041L29.233 8.58872C29.2069 8.51095 29.1191 8.37288 28.9029 8.19511C28.472 7.84085 27.7974 7.54489 27.2892 7.38852L26.7927 7.23576L26.7496 6.71811C26.6735 5.80468 26.1703 5.2378 25.4999 4.86936C24.8014 4.48543 23.9633 4.34979 23.4182 4.34979L22.9662 4.34979L22.7467 3.95467C22.3585 3.25602 21.8214 2.97362 21.2959 2.8778C20.7371 2.77589 20.1802 2.88753 19.8626 3.01457L19.4875 3.16465L19.1512 2.9405ZM19.6749 1.45993C17.8584 0.432629 16.0947 0.906784 15.1356 1.44636C14.1273 1.12376 13.2037 1.29489 12.4664 1.65645C11.8679 1.94992 11.3856 2.36963 11.0467 2.76106C9.23441 2.57331 7.97361 3.15034 7.19422 4.11741C6.59158 4.86517 6.33929 5.77034 6.27416 6.53356C5.853 6.69332 5.53046 6.97545 5.30068 7.27516C5.08124 7.5614 4.93337 7.87679 4.84066 8.1594C3.59329 8.79709 2.84547 9.84321 2.42151 10.8755C2.01917 11.855 1.89171 12.857 1.90028 13.5885C1.16867 14.6769 1.16774 15.8151 1.47243 16.7661C1.70647 17.4965 2.12014 18.1261 2.52311 18.5869C1.96704 19.936 2.14683 21.1234 2.69266 22.0591C3.13755 22.8218 3.80022 23.3777 4.40169 23.7321C4.34754 24.3902 4.43757 24.984 4.65102 25.5109C4.92467 26.1864 5.38035 26.7008 5.8931 27.0827C6.64705 27.6444 7.55434 27.9439 8.32471 28.0786C8.39498 28.7765 8.6386 29.3645 9.04922 29.8289C9.58366 30.4334 10.3169 30.733 11.041 30.8649C12.2899 31.0923 13.7247 30.8617 14.7863 30.5592C16.1607 31.6868 17.5277 31.9696 18.7229 31.7622C19.7068 31.5914 20.5112 31.0997 21.0614 30.5946C23.008 31.2624 24.4764 31.0759 25.5034 30.3263C26.2962 29.7477 26.7097 28.9148 26.8909 28.169C28.831 28.1101 30.0675 27.3726 30.7193 26.2596C31.2644 25.3289 31.3202 24.2645 31.1955 23.4236C32.5893 22.5151 33.1967 21.3193 33.3052 20.1286C33.385 19.2528 33.1918 18.4245 32.916 17.7648C33.083 17.6441 33.2288 17.502 33.3519 17.3395C33.6479 16.9485 33.7659 16.5007 33.7932 16.0897C33.8376 15.4211 33.6506 14.7457 33.4433 14.2538C33.6974 12.9269 33.187 11.7087 32.5358 10.7781C32.0034 10.0173 31.3338 9.38259 30.752 8.93467C30.8028 8.65576 30.7814 8.37364 30.6895 8.09987C30.5337 7.63565 30.2022 7.27441 29.8785 7.00835C29.3825 6.60058 28.7471 6.28843 28.2067 6.08134C27.9429 4.82884 27.1312 4.01286 26.2399 3.52298C25.4395 3.08305 24.5526 2.88812 23.8539 2.83171C23.2303 1.9449 22.3888 1.51541 21.5715 1.36638C20.8695 1.23836 20.1926 1.31639 19.6749 1.45993Z" fill="#E84B85"/>
<path d="M11.2665 11.3732C11.2665 13.8313 9.21801 14.1045 8.19379 13.9338C9.21801 15.9822 8.62055 17.1771 8.19379 17.5186C9.42286 18.1331 9.55942 20.3352 9.47407 21.3594C11.1128 21.9739 11.3518 23.4932 11.2665 24.176C13.3149 23.5615 15.022 24.9442 15.6194 25.7124C16.8485 24.0736 19.2042 25.0296 20.2285 25.7124C21.2527 23.8688 23.3865 23.92 24.3254 24.176C23.7108 22.1276 25.2642 21.4448 26.1178 21.3594C25.2984 19.9255 26.8006 18.2014 27.6541 17.5186C26.0153 17.1089 26.2885 14.6166 26.6299 13.4217C25.196 13.6265 24.4961 12.1414 24.3254 11.3732C22.4818 12.6023 20.8259 11.5439 20.2285 10.8611C18.3848 12.4998 16.3876 11.5439 15.6194 10.8611C13.9807 12.9095 12.0346 12.056 11.2665 11.3732Z" fill="#E84B85"/>
<path fill-rule="evenodd" clip-rule="evenodd" d="M14.7359 14.9776C15.0079 15.0553 15.1653 15.3387 15.0876 15.6107C14.9672 16.0323 14.7818 16.3675 14.5307 16.6108C14.2755 16.858 13.9777 16.9855 13.6803 17.027C13.1127 17.1064 12.5761 16.8732 12.2627 16.6643C12.0274 16.5074 11.9638 16.1894 12.1207 15.9541C12.2776 15.7188 12.5955 15.6552 12.8308 15.8121C13.0296 15.9446 13.3123 16.0443 13.5385 16.0127C13.638 15.9987 13.7307 15.9597 13.818 15.8752C13.9094 15.7866 14.0184 15.6247 14.1028 15.3293C14.1805 15.0574 14.464 14.8999 14.7359 14.9776Z" fill="white"/>
<path fill-rule="evenodd" clip-rule="evenodd" d="M20.5999 14.9776C20.3279 15.0553 20.1705 15.3387 20.2482 15.6107C20.3686 16.0323 20.5541 16.3675 20.8051 16.6108C21.0603 16.858 21.3581 16.9855 21.6555 17.027C22.2231 17.1064 22.7597 16.8732 23.0731 16.6643C23.3084 16.5074 23.372 16.1894 23.2151 15.9541C23.0583 15.7188 22.7403 15.6552 22.505 15.8121C22.3062 15.9446 22.0235 16.0443 21.7973 16.0127C21.6978 15.9987 21.6051 15.9597 21.5178 15.8752C21.4264 15.7866 21.3174 15.6247 21.233 15.3293C21.1553 15.0574 20.8718 14.8999 20.5999 14.9776Z" fill="white"/>
<path fill-rule="evenodd" clip-rule="evenodd" d="M16.3596 18.8848C16.5949 18.7279 16.9129 18.7915 17.0698 19.0268C17.2069 19.2324 17.4209 19.4201 17.6101 19.4663C17.6873 19.4852 17.7638 19.4823 17.8531 19.4396C17.9507 19.3928 18.0958 19.2821 18.266 19.0268C18.4229 18.7915 18.7409 18.7279 18.9762 18.8848C19.2115 19.0417 19.2751 19.3596 19.1182 19.5949C18.8787 19.9542 18.6056 20.2148 18.2956 20.3633C17.9774 20.5157 17.657 20.5321 17.3672 20.4613C16.8224 20.3283 16.4219 19.9014 16.2176 19.5949C16.0607 19.3596 16.1243 19.0417 16.3596 18.8848Z" fill="white"/>
<path fill-rule="evenodd" clip-rule="evenodd" d="M17.1558 21.8714V20.079H18.18V21.8714H17.1558Z" fill="white"/>
<path fill-rule="evenodd" clip-rule="evenodd" d="M15.2195 20.7833C15.3962 20.5624 15.7185 20.5266 15.9393 20.7033C16.4996 21.1515 17.0933 21.3593 17.6679 21.3593C18.2425 21.3593 18.8362 21.1515 19.3964 20.7033C19.6173 20.5266 19.9395 20.5624 20.1162 20.7833C20.2929 21.0041 20.2571 21.3264 20.0363 21.5031C19.3162 22.0791 18.5016 22.3835 17.6679 22.3835C16.8342 22.3835 16.0195 22.0791 15.2995 21.5031C15.0787 21.3264 15.0429 21.0041 15.2195 20.7833Z" fill="white"/>
<path d="M7.82508 8.81251C5.57178 8.19797 1.76507 11.4584 0.143376 13.1655C-0.116291 13.4317 0.035181 13.7885 0.143376 13.9336C0.553066 14.9579 2.44792 14.7018 3.7282 14.7018C5.57181 14.7018 5.6486 14.4457 6.28874 13.9336C8.33719 12.2949 8.8493 11.0317 8.8493 10.6049C9.05415 9.78551 8.25184 9.06856 7.82508 8.81251Z" fill="#E84B85"/>
<path d="M27.1749 8.81251C29.4282 8.19797 33.2349 11.4584 34.8566 13.1655C35.1163 13.4317 34.9648 13.7885 34.8566 13.9336C34.4469 14.9579 32.5521 14.7018 31.2718 14.7018C29.4282 14.7018 29.3514 14.4457 28.7113 13.9336C26.6628 12.2949 26.1507 11.0317 26.1507 10.6049C25.9459 9.78551 26.7482 9.06856 27.1749 8.81251Z" fill="#E84B85"/>
<path d="M22.2904 10.05L22.2055 9.5176L23.9511 5.523L24.1261 5.78569L21.7137 6.17043L21.6055 5.492L24.5442 5.02334L24.6305 5.56436L22.8835 9.55037L22.6879 9.29095L25.2165 8.88769L25.3247 9.56612L22.2904 10.05Z" fill="#E84B85"/>
<path fill-rule="evenodd" clip-rule="evenodd" d="M22.0778 10.3431L21.9407 9.48371L23.3923 6.16189L21.5011 6.4635L21.3122 5.27935L24.7566 4.73004L24.8951 5.59818L23.4431 8.9111L25.429 8.59439L25.6178 9.77854L22.0778 10.3431ZM23.0203 9.23782L24.6304 5.56425L24.5441 5.02323L21.6054 5.49188L21.7136 6.17032L23.8145 5.83527L22.2054 9.51749L22.2903 10.0499L25.3246 9.56601L25.2164 8.88758L23.0203 9.23782Z" fill="#E84B85"/>
<path d="M27.7422 6.52834L27.9558 5.84192L32.4053 2.10198L32.459 2.51942L29.3489 1.55161L29.621 0.676973L33.4096 1.8559L33.1925 2.55339L28.7465 6.28226L28.6664 5.85659L31.9263 6.87101L31.6541 7.74565L27.7422 6.52834Z" fill="#E84B85"/>
<path fill-rule="evenodd" clip-rule="evenodd" d="M27.1011 6.86515L27.5114 5.54645L28.0082 5.12885L28.0056 5.11462L28.0199 5.11907L31.0108 2.6051L28.7077 1.88842L29.2842 0.0358135L32.7751 1.12212L32.7935 1.10662L32.7964 1.12874L34.0507 1.51906L33.6368 2.84913L30.1427 5.77965L32.5674 6.53418L31.9909 8.38679L27.1011 6.86515ZM29.095 5.98997L33.1925 2.55338L33.4096 1.85589L29.621 0.676962L29.3489 1.5516L32.0573 2.39443L27.9558 5.84191L27.7422 6.52833L31.6541 7.74564L31.9263 6.871L29.095 5.98997Z" fill="#E84B85"/>
</svg>
